<svg width="214" height="38" viewBox="0 0 214 38" fill="none" xmlns="http://www.w3.org/2000/svg">
<path d="M16.92 31.72C17.5867 32.8667 17.92 33.9733 17.92 35.04C17.92 35.28 17.8933 35.4933 17.84 35.68C17.8133 35.8933 17.7733 36.1067 17.72 36.32C17.2667 36.2667 16.7867 36.2267 16.28 36.2C15.8 36.1733 15.2933 36.16 14.76 36.16C14.12 36.16 13.4667 36.1733 12.8 36.2C12.16 36.2533 11.44 36.32 10.64 36.4C9.84 36.48 8.94667 36.5867 7.96 36.72C6.97333 36.8533 5.82667 37.0267 4.52 37.24C3.90667 37.0267 3.29333 36.6 2.68 35.96C2.06667 35.3467 1.49333 34.6 0.96 33.72C1.22667 33.1333 1.56 32.4133 1.96 31.56C2.36 30.68 2.82667 29.6267 3.36 28.4C3.89333 27.1467 4.48 25.6933 5.12 24.04C5.78667 22.36 6.49333 20.4267 7.24 18.24C7.72 16.8 8.13333 15.5333 8.48 14.44C8.82667 13.3467 9.13333 12.2933 9.4 11.28C9.69333 10.24 9.97333 9.16 10.24 8.04C10.5067 6.92 10.8 5.62666 11.12 4.16C12.1867 4.37333 13.1067 4.77333 13.88 5.36C14.68 5.92 15.44 6.73333 16.16 7.8C15.9467 8.14667 15.6667 8.70667 15.32 9.48C14.9733 10.2533 14.56 11.2 14.08 12.32C13.6267 13.4133 13.12 14.6667 12.56 16.08C12 17.4667 11.4133 18.96 10.8 20.56C10.2133 22.1333 9.64 23.6133 9.08 25C8.52 26.3867 8.01333 27.64 7.56 28.76C7.13333 29.88 6.78667 30.84 6.52 31.64C6.25333 32.44 6.12 33.04 6.12 33.44C6.54667 33.4133 6.93333 33.3867 7.28 33.36C7.62667 33.3333 7.98667 33.2933 8.36 33.24C8.73333 33.16 9.13333 33.08 9.56 33C10.0133 32.8933 10.5467 32.76 11.16 32.6C11.6933 32.4667 12.1867 32.36 12.64 32.28C13.0933 32.1733 13.5333 32.0933 13.96 32.04C14.4133 31.96 14.8667 31.9067 15.32 31.88C15.8 31.8267 16.3333 31.7733 16.92 31.72ZM20.2794 31.32C20.2794 31.08 20.2927 30.7867 20.3194 30.44C20.3727 30.0667 20.4527 29.5867 20.5594 29C20.666 28.3867 20.7994 27.6533 20.9594 26.8C21.146 25.9467 21.3727 24.92 21.6394 23.72C21.6927 23.4533 21.8127 23.0267 21.9994 22.44C22.186 21.8533 22.426 21.24 22.7194 20.6C23.0394 19.9333 23.4127 19.2933 23.8394 18.68C24.2927 18.0667 24.826 17.6133 25.4394 17.32C25.8927 17.4267 26.4927 17.7067 27.2394 18.16C27.986 18.5867 28.626 19.1867 29.1594 19.96C28.546 20.6533 28.026 21.3467 27.5994 22.04C27.1994 22.7333 26.826 23.4533 26.4794 24.2C26.1594 24.9467 25.8527 25.72 25.5594 26.52C25.2927 27.32 24.986 28.16 24.6394 29.04C24.346 29.7867 24.0794 30.56 23.8394 31.36C23.5994 32.1333 23.466 32.8133 23.4394 33.4C23.4394 33.88 23.426 34.2133 23.3994 34.4C23.3994 34.6133 23.3327 34.72 23.1994 34.72C23.0927 34.72 22.8794 34.6533 22.5594 34.52C22.2394 34.3867 21.906 34.1867 21.5594 33.92C21.2394 33.6267 20.946 33.2667 20.6794 32.84C20.4127 32.4133 20.2794 31.9067 20.2794 31.32ZM27.9194 13.96C27.9194 13.8 27.9594 13.56 28.0394 13.24C27.906 13.1067 27.786 12.9067 27.6794 12.64C27.5994 12.3733 27.5594 12.1333 27.5594 11.92C27.5594 11.68 27.586 11.36 27.6394 10.96C27.7194 10.5333 27.8127 10.08 27.9194 9.6C28.026 9.12 28.1594 8.62667 28.3194 8.12C28.4794 7.58666 28.6394 7.10666 28.7994 6.68C29.1194 6.68 29.506 6.77333 29.9594 6.96C30.4394 7.12 30.9194 7.34667 31.3994 7.64C31.8794 7.90666 32.3194 8.21333 32.7194 8.56C33.1194 8.88 33.426 9.18667 33.6394 9.48C33.346 9.77333 32.9594 10.1867 32.4794 10.72C31.9994 11.2267 31.5327 11.7733 31.0794 12.36C30.626 12.92 30.2127 13.4533 29.8394 13.96C29.466 14.4667 29.226 14.8267 29.1194 15.04C28.7994 14.9867 28.5194 14.8533 28.2794 14.64C28.0394 14.4 27.9194 14.1733 27.9194 13.96ZM31.7791 18.68C31.6457 18.52 31.5257 18.1867 31.4191 17.68C31.3124 17.1467 31.2591 16.6933 31.2591 16.32C31.9524 16.3733 32.6191 16.4267 33.2591 16.48C33.8991 16.5067 34.4857 16.5333 35.0191 16.56C35.4191 15.76 35.8457 14.9733 36.2991 14.2C36.7791 13.4 37.2324 12.68 37.6591 12.04C38.1124 11.3733 38.5257 10.8133 38.8991 10.36C39.2991 9.90667 39.6057 9.61333 39.8191 9.48C40.0857 9.48 40.4191 9.53333 40.8191 9.64C41.2457 9.72 41.6724 9.84 42.0991 10C42.5257 10.1333 42.9124 10.28 43.2591 10.44C43.6057 10.6 43.8457 10.76 43.9791 10.92C43.1791 11.9333 42.4857 12.88 41.8991 13.76C41.3391 14.6133 40.7257 15.6 40.0591 16.72C40.5924 16.72 41.1257 16.7067 41.6591 16.68C42.2191 16.6533 42.7791 16.6133 43.3391 16.56C43.4724 16.6933 43.5791 16.8667 43.6591 17.08C43.7391 17.2667 43.7791 17.4667 43.7791 17.68C42.4724 18.16 40.8857 18.4267 39.0191 18.48C38.3524 19.76 37.7524 21.04 37.2191 22.32C36.7124 23.5733 36.2724 24.7867 35.8991 25.96C35.5524 27.1333 35.2724 28.24 35.0591 29.28C34.8724 30.32 34.7791 31.2533 34.7791 32.08C34.7791 33.2533 35.2191 33.9067 36.0991 34.04C36.8991 33.9333 37.6591 33.7333 38.3791 33.44C39.0991 33.1467 39.7391 32.7733 40.2991 32.32C40.4591 32.56 40.5524 32.76 40.5791 32.92C40.4191 33.16 40.1391 33.44 39.7391 33.76C39.3657 34.08 38.9524 34.3867 38.4991 34.68C38.0457 35 37.6057 35.2667 37.1791 35.48C36.7524 35.6933 36.4324 35.8133 36.2191 35.84C35.5524 35.8133 34.8857 35.6667 34.2191 35.4C33.5524 35.1333 32.9391 34.8 32.3791 34.4C31.8457 34 31.4057 33.56 31.0591 33.08C30.7124 32.5733 30.5391 32.08 30.5391 31.6C30.5391 30.96 30.6191 30.16 30.7791 29.2C30.9657 28.2133 31.2191 27.1467 31.5391 26C31.8591 24.8533 32.2324 23.6533 32.6591 22.4C33.0857 21.1467 33.5524 19.9067 34.0591 18.68H31.7791ZM45.8416 18.68C45.7082 18.52 45.5882 18.1867 45.4816 17.68C45.3749 17.1467 45.3216 16.6933 45.3216 16.32C46.0149 16.3733 46.6816 16.4267 47.3216 16.48C47.9616 16.5067 48.5482 16.5333 49.0816 16.56C49.4816 15.76 49.9082 14.9733 50.3616 14.2C50.8416 13.4 51.2949 12.68 51.7216 12.04C52.1749 11.3733 52.5882 10.8133 52.9616 10.36C53.3616 9.90667 53.6682 9.61333 53.8816 9.48C54.1482 9.48 54.4816 9.53333 54.8816 9.64C55.3082 9.72 55.7349 9.84 56.1616 10C56.5882 10.1333 56.9749 10.28 57.3216 10.44C57.6682 10.6 57.9082 10.76 58.0416 10.92C57.2416 11.9333 56.5482 12.88 55.9616 13.76C55.4016 14.6133 54.7882 15.6 54.1216 16.72C54.6549 16.72 55.1882 16.7067 55.7216 16.68C56.2816 16.6533 56.8416 16.6133 57.4016 16.56C57.5349 16.6933 57.6416 16.8667 57.7216 17.08C57.8016 17.2667 57.8416 17.4667 57.8416 17.68C56.5349 18.16 54.9482 18.4267 53.0816 18.48C52.4149 19.76 51.8149 21.04 51.2816 22.32C50.7749 23.5733 50.3349 24.7867 49.9616 25.96C49.6149 27.1333 49.3349 28.24 49.1216 29.28C48.9349 30.32 48.8416 31.2533 48.8416 32.08C48.8416 33.2533 49.2816 33.9067 50.1616 34.04C50.9616 33.9333 51.7216 33.7333 52.4416 33.44C53.1616 33.1467 53.8016 32.7733 54.3616 32.32C54.5216 32.56 54.6149 32.76 54.6416 32.92C54.4816 33.16 54.2016 33.44 53.8016 33.76C53.4282 34.08 53.0149 34.3867 52.5616 34.68C52.1082 35 51.6682 35.2667 51.2416 35.48C50.8149 35.6933 50.4949 35.8133 50.2816 35.84C49.6149 35.8133 48.9482 35.6667 48.2816 35.4C47.6149 35.1333 47.0016 34.8 46.4416 34.4C45.9082 34 45.4682 33.56 45.1216 33.08C44.7749 32.5733 44.6016 32.08 44.6016 31.6C44.6016 30.96 44.6816 30.16 44.8416 29.2C45.0282 28.2133 45.2816 27.1467 45.6016 26C45.9216 24.8533 46.2949 23.6533 46.7216 22.4C47.1482 21.1467 47.6149 19.9067 48.1216 18.68H45.8416ZM57.5041 31.44C57.5041 30.2667 57.7841 28.6267 58.3441 26.52C58.9041 24.3867 59.6907 21.9067 60.7041 19.08C62.3574 14.5733 63.9041 10.8267 65.3441 7.84C66.8107 4.82667 68.2374 2.48 69.6241 0.799998C69.9441 0.853331 70.3307 0.986664 70.7841 1.2C71.2641 1.41333 71.7307 1.65333 72.1841 1.92C72.6374 2.16 73.0374 2.41333 73.3841 2.68C73.7574 2.94666 73.9974 3.16 74.1041 3.32C72.0241 5.77333 70.1974 8.41333 68.6241 11.24C67.0507 14.0667 65.6107 17.3067 64.3041 20.96C63.1841 24.1067 62.3307 26.9467 61.7441 29.48C61.1574 31.9867 60.8641 34.08 60.8641 35.76C60.8641 36.2133 60.8641 36.4933 60.8641 36.6C60.8641 36.7067 60.8774 36.8133 60.9041 36.92C60.5307 36.8667 60.2107 36.7733 59.9441 36.64C59.6774 36.5067 59.5041 36.3467 59.4241 36.16C59.3707 36.0267 59.2241 35.8267 58.9841 35.56C58.7441 35.32 58.5307 35.1333 58.3441 35C58.1041 34.84 57.9041 34.4267 57.7441 33.76C57.5841 33.0667 57.5041 32.2933 57.5041 31.44ZM81.1609 17.44C81.0543 19.0933 80.7609 20.52 80.2809 21.72C79.8009 22.8933 79.1076 23.9333 78.2009 24.84C77.3209 25.72 76.2409 26.52 74.9609 27.24C73.6809 27.96 72.1876 28.6533 70.4809 29.32C70.4809 29.48 70.4676 29.6533 70.4409 29.84C70.4409 30 70.4409 30.1733 70.4409 30.36C70.4409 30.7067 70.4676 31.0667 70.5209 31.44C70.5743 31.8133 70.6676 32.16 70.8009 32.48C70.9343 32.8 71.1209 33.0667 71.3609 33.28C71.6009 33.4667 71.9076 33.56 72.2809 33.56C73.0009 33.56 73.7076 33.4 74.4009 33.08C75.0943 32.76 75.7476 32.3733 76.3609 31.92C77.0009 31.44 77.5876 30.9333 78.1209 30.4C78.6809 29.84 79.1743 29.3333 79.6009 28.88C79.8676 29.12 80.0943 29.3467 80.2809 29.56C79.0809 31.16 77.7609 32.4933 76.3209 33.56C74.9076 34.6 73.5609 35.2667 72.2809 35.56C70.4409 35.3467 69.0009 34.68 67.9609 33.56C66.9476 32.4133 66.4409 31.04 66.4409 29.44C66.4409 28.3467 66.5876 27.24 66.8809 26.12C67.2009 24.9733 67.6276 23.88 68.1609 22.84C68.7209 21.7733 69.3609 20.7733 70.0809 19.84C70.8276 18.9067 71.6143 18.0933 72.4409 17.4C73.2943 16.7067 74.1609 16.16 75.0409 15.76C75.9476 15.36 76.8409 15.16 77.7209 15.16C78.9476 15.32 80.0943 16.08 81.1609 17.44ZM78.4009 18.76C77.6809 18.8667 76.9343 19.16 76.1609 19.64C75.3876 20.12 74.6543 20.76 73.9609 21.56C73.2943 22.36 72.6809 23.2933 72.1209 24.36C71.5609 25.4267 71.1209 26.5733 70.8009 27.8C72.9343 26.7333 74.7076 25.4267 76.1209 23.88C77.5343 22.3067 78.2943 20.6 78.4009 18.76ZM109.224 36.96C109.171 36.9867 109.117 37 109.064 37C109.011 37 108.904 37 108.744 37C108.371 37 107.931 36.9333 107.424 36.8C106.944 36.6933 106.464 36.5467 105.984 36.36C105.531 36.2 105.131 36.0133 104.784 35.8C104.464 35.5867 104.264 35.4 104.184 35.24C104.157 34.8667 104.144 34.48 104.144 34.08C104.144 33.68 104.144 33.2933 104.144 32.92C104.144 29.9333 104.357 26.8133 104.784 23.56C105.237 20.3067 105.971 16.7867 106.984 13C107.091 12.6267 107.197 12.16 107.304 11.6C107.437 11.0133 107.571 10.3867 107.704 9.72C107.064 10.2267 106.304 11.04 105.424 12.16C104.544 13.2533 103.611 14.56 102.624 16.08C101.664 17.5733 100.691 19.2267 99.7041 21.04C98.7441 22.8267 97.8641 24.6533 97.0641 26.52C96.2641 28.36 95.5707 30.1867 94.9841 32C94.4241 33.8133 94.0774 35.4933 93.9441 37.04C92.6641 36.6667 91.7707 36.2933 91.2641 35.92C90.7841 35.5467 90.5441 35.0933 90.5441 34.56C90.5441 34.08 90.6907 33.4 90.9841 32.52C91.2774 31.64 91.6907 30.6 92.2241 29.4C92.7574 28.2 93.4107 26.8667 94.1841 25.4C94.9574 23.9067 95.8107 22.3067 96.7441 20.6C97.8107 18.6533 98.8507 16.8267 99.8641 15.12C100.904 13.4133 101.917 11.8667 102.904 10.48C103.891 9.09333 104.851 7.89333 105.784 6.88C106.744 5.86667 107.691 5.09333 108.624 4.56C108.997 4.56 109.491 4.65333 110.104 4.84C110.744 5.02666 111.357 5.25333 111.944 5.52C112.557 5.78667 113.091 6.06667 113.544 6.36C114.024 6.62666 114.291 6.85333 114.344 7.04C113.971 7.78667 113.531 8.90667 113.024 10.4C112.517 11.8933 111.997 13.5867 111.464 15.48C110.957 17.3733 110.464 19.3867 109.984 21.52C109.531 23.6267 109.171 25.6533 108.904 27.6C109.517 26.1333 110.224 24.6133 111.024 23.04C111.851 21.44 112.717 19.8667 113.624 18.32C114.531 16.7467 115.451 15.2267 116.384 13.76C117.344 12.2933 118.277 10.96 119.184 9.76C120.091 8.53333 120.931 7.46667 121.704 6.56C122.504 5.65333 123.211 4.98667 123.824 4.56C124.197 4.56 124.691 4.65333 125.304 4.84C125.944 5.02666 126.557 5.25333 127.144 5.52C127.757 5.78667 128.291 6.06667 128.744 6.36C129.224 6.62666 129.491 6.85333 129.544 7.04C128.691 8.56 127.944 10.4133 127.304 12.6C126.664 14.7867 126.117 17.08 125.664 19.48C125.237 21.88 124.904 24.2667 124.664 26.64C124.451 28.9867 124.344 31.0933 124.344 32.96C124.344 33.5733 124.344 34.2133 124.344 34.88C124.344 35.5467 124.371 36.24 124.424 36.96C124.051 36.96 123.597 36.9067 123.064 36.8C122.557 36.72 122.051 36.6 121.544 36.44C121.064 36.28 120.624 36.0933 120.224 35.88C119.824 35.6933 119.544 35.48 119.384 35.24C119.357 34.8667 119.344 34.48 119.344 34.08C119.344 33.68 119.344 33.2933 119.344 32.92C119.344 29.9333 119.557 26.8133 119.984 23.56C120.437 20.3067 121.171 16.7867 122.184 13C122.291 12.6267 122.411 12.12 122.544 11.48C122.677 10.84 122.811 10.1733 122.944 9.48C122.197 9.85333 121.344 10.5733 120.384 11.64C119.451 12.68 118.491 13.96 117.504 15.48C116.544 16.9733 115.584 18.64 114.624 20.48C113.691 22.32 112.837 24.2 112.064 26.12C111.317 28.0133 110.677 29.9067 110.144 31.8C109.637 33.6667 109.331 35.3867 109.224 36.96ZM129.381 31.32C129.381 31.08 129.394 30.7867 129.421 30.44C129.474 30.0667 129.554 29.5867 129.661 29C129.768 28.3867 129.901 27.6533 130.061 26.8C130.248 25.9467 130.474 24.92 130.741 23.72C130.794 23.4533 130.914 23.0267 131.101 22.44C131.288 21.8533 131.528 21.24 131.821 20.6C132.141 19.9333 132.514 19.2933 132.941 18.68C133.394 18.0667 133.928 17.6133 134.541 17.32C134.994 17.4267 135.594 17.7067 136.341 18.16C137.088 18.5867 137.728 19.1867 138.261 19.96C137.648 20.6533 137.128 21.3467 136.701 22.04C136.301 22.7333 135.928 23.4533 135.581 24.2C135.261 24.9467 134.954 25.72 134.661 26.52C134.394 27.32 134.088 28.16 133.741 29.04C133.448 29.7867 133.181 30.56 132.941 31.36C132.701 32.1333 132.568 32.8133 132.541 33.4C132.541 33.88 132.528 34.2133 132.501 34.4C132.501 34.6133 132.434 34.72 132.301 34.72C132.194 34.72 131.981 34.6533 131.661 34.52C131.341 34.3867 131.008 34.1867 130.661 33.92C130.341 33.6267 130.048 33.2667 129.781 32.84C129.514 32.4133 129.381 31.9067 129.381 31.32ZM137.021 13.96C137.021 13.8 137.061 13.56 137.141 13.24C137.008 13.1067 136.888 12.9067 136.781 12.64C136.701 12.3733 136.661 12.1333 136.661 11.92C136.661 11.68 136.688 11.36 136.741 10.96C136.821 10.5333 136.914 10.08 137.021 9.6C137.128 9.12 137.261 8.62667 137.421 8.12C137.581 7.58666 137.741 7.10666 137.901 6.68C138.221 6.68 138.608 6.77333 139.061 6.96C139.541 7.12 140.021 7.34667 140.501 7.64C140.981 7.90666 141.421 8.21333 141.821 8.56C142.221 8.88 142.528 9.18667 142.741 9.48C142.448 9.77333 142.061 10.1867 141.581 10.72C141.101 11.2267 140.634 11.7733 140.181 12.36C139.728 12.92 139.314 13.4533 138.941 13.96C138.568 14.4667 138.328 14.8267 138.221 15.04C137.901 14.9867 137.621 14.8533 137.381 14.64C137.141 14.4 137.021 14.1733 137.021 13.96ZM137.834 33.2C137.967 32.4267 138.194 31.4133 138.514 30.16C138.861 28.88 139.261 27.5333 139.714 26.12C140.167 24.68 140.647 23.24 141.154 21.8C141.661 20.36 142.154 19.0667 142.634 17.92C142.981 17.0933 143.287 16.4533 143.554 16C143.821 15.52 144.114 15.12 144.434 14.8C144.807 14.8533 145.194 14.9467 145.594 15.08C145.994 15.2133 146.381 15.3733 146.754 15.56C147.127 15.7467 147.461 15.9467 147.754 16.16C148.047 16.3467 148.274 16.5333 148.434 16.72C147.714 17.5733 147.074 18.5467 146.514 19.64C145.981 20.7333 145.434 22.1333 144.874 23.84C146.314 22.56 147.581 21.3333 148.674 20.16C149.794 18.9867 150.834 17.68 151.794 16.24C151.954 16.1067 152.234 16.04 152.634 16.04C153.007 16.04 153.367 16.1067 153.714 16.24C154.061 16.3467 154.301 16.5067 154.434 16.72C153.954 18 153.714 19.2667 153.714 20.52C153.714 21.6933 153.887 22.5733 154.234 23.16C154.207 23.32 154.021 23.6267 153.674 24.08C153.354 24.5333 152.994 24.96 152.594 25.36C151.874 24.9867 151.234 24.48 150.674 23.84C150.114 23.1733 149.701 22.4533 149.434 21.68C148.181 22.56 147.114 23.4267 146.234 24.28C145.354 25.1067 144.594 26.04 143.954 27.08C143.341 28.0933 142.807 29.2667 142.354 30.6C141.927 31.9333 141.514 33.52 141.114 35.36C140.874 35.3333 140.581 35.24 140.234 35.08C139.914 34.9467 139.581 34.7733 139.234 34.56C138.914 34.3467 138.621 34.12 138.354 33.88C138.087 33.64 137.914 33.4133 137.834 33.2ZM168.727 17.84C168.994 17.84 169.3 17.8933 169.647 18C170.02 18.08 170.354 18.2 170.647 18.36C170.94 18.4933 171.18 18.64 171.367 18.8C171.58 18.96 171.687 19.1067 171.687 19.24C171.154 20.36 170.66 21.4933 170.207 22.64C169.754 23.76 169.367 24.84 169.047 25.88C168.727 26.92 168.474 27.8933 168.287 28.8C168.127 29.7067 168.047 30.4933 168.047 31.16C168.047 31.9067 168.127 32.5333 168.287 33.04C168.447 33.52 168.714 33.8667 169.087 34.08C168.767 34.2933 168.354 34.4667 167.847 34.6C167.34 34.7333 166.887 34.8 166.487 34.8C165.047 34.8 164.327 33.8133 164.327 31.84C164.327 30.32 164.834 28.24 165.847 25.6C165.314 26.8267 164.7 27.9867 164.007 29.08C163.314 30.1467 162.607 31.0933 161.887 31.92C161.167 32.7467 160.434 33.4267 159.687 33.96C158.967 34.4667 158.3 34.7733 157.687 34.88C156.7 34.8267 155.9 34.36 155.287 33.48C154.674 32.5733 154.367 31.4267 154.367 30.04C154.367 28.5467 154.687 26.9733 155.327 25.32C155.967 23.6667 156.78 22.1333 157.767 20.72C158.78 19.3067 159.874 18.1333 161.047 17.2C162.22 16.24 163.354 15.7333 164.447 15.68C164.714 15.76 165.007 15.92 165.327 16.16C165.674 16.4 165.994 16.68 166.287 17C166.607 17.32 166.874 17.6533 167.087 18C167.3 18.32 167.42 18.6 167.447 18.84C166.38 19 165.274 19.52 164.127 20.4C163.007 21.28 161.98 22.3467 161.047 23.6C160.14 24.8267 159.394 26.1467 158.807 27.56C158.22 28.9733 157.927 30.2933 157.927 31.52C157.927 32.0267 158.114 32.3467 158.487 32.48C159.26 32.32 160.154 31.6667 161.167 30.52C162.18 29.3467 163.407 27.5467 164.847 25.12C165.114 24.64 165.407 24.1067 165.727 23.52C166.074 22.9333 166.42 22.32 166.767 21.68C167.114 21.04 167.447 20.4 167.767 19.76C168.114 19.0933 168.434 18.4533 168.727 17.84ZM173.643 26.96C173.643 25.44 173.95 23.9733 174.563 22.56C175.203 21.12 176.03 19.8533 177.043 18.76C178.083 17.64 179.257 16.7467 180.563 16.08C181.897 15.3867 183.27 15.04 184.683 15.04C186.07 15.04 187.137 15.3867 187.883 16.08C188.63 16.7733 189.003 17.76 189.003 19.04C189.003 19.6533 188.91 20.2533 188.723 20.84C188.563 21.4 188.337 21.9067 188.043 22.36C187.777 22.8133 187.457 23.1867 187.083 23.48C186.71 23.7467 186.337 23.88 185.963 23.88C185.643 23.88 185.31 23.7867 184.963 23.6C184.643 23.3867 184.377 23.12 184.163 22.8C185.95 21.1733 186.843 19.6933 186.843 18.36C186.843 17.5867 186.537 17.2 185.923 17.2C185.39 17.2 184.723 17.4533 183.923 17.96C183.123 18.4667 182.35 19.1333 181.603 19.96C180.457 21.24 179.577 22.6667 178.963 24.24C178.377 25.7867 178.083 27.4133 178.083 29.12C178.083 31.28 178.563 32.5733 179.523 33C179.923 32.9467 180.39 32.8267 180.923 32.64C181.457 32.4533 182.03 32.2133 182.643 31.92C183.257 31.6 183.883 31.24 184.523 30.84C185.19 30.44 185.83 30.0133 186.443 29.56C186.55 29.64 186.643 29.76 186.723 29.92C186.803 30.08 186.843 30.2267 186.843 30.36C186.39 30.92 185.87 31.4667 185.283 32C184.697 32.5333 184.083 33.0267 183.443 33.48C182.803 33.9067 182.177 34.2667 181.563 34.56C180.977 34.88 180.457 35.08 180.003 35.16C179.123 35.08 178.297 34.8 177.523 34.32C176.75 33.8667 176.07 33.2667 175.483 32.52C174.923 31.7733 174.47 30.92 174.123 29.96C173.803 29 173.643 28 173.643 26.96ZM190.16 31.44C190.16 30.2667 190.44 28.6267 191 26.52C191.56 24.3867 192.347 21.9067 193.36 19.08C195.014 14.5733 196.56 10.8267 198 7.84C199.467 4.82667 200.894 2.48 202.28 0.799998C202.6 0.853331 202.987 0.986664 203.44 1.2C203.92 1.41333 204.387 1.65333 204.84 1.92C205.294 2.16 205.694 2.41333 206.04 2.68C206.414 2.94666 206.654 3.16 206.76 3.32C204.68 5.77333 202.854 8.41333 201.28 11.24C199.707 14.0667 198.267 17.3067 196.96 20.96C195.84 24.1067 194.987 26.9467 194.4 29.48C193.814 31.9867 193.52 34.08 193.52 35.76C193.52 36.2133 193.52 36.4933 193.52 36.6C193.52 36.7067 193.534 36.8133 193.56 36.92C193.187 36.8667 192.867 36.7733 192.6 36.64C192.334 36.5067 192.16 36.3467 192.08 36.16C192.027 36.0267 191.88 35.8267 191.64 35.56C191.4 35.32 191.187 35.1333 191 35C190.76 34.84 190.56 34.4267 190.4 33.76C190.24 33.0667 190.16 32.2933 190.16 31.44ZM213.817 17.44C213.711 19.0933 213.417 20.52 212.937 21.72C212.457 22.8933 211.764 23.9333 210.857 24.84C209.977 25.72 208.897 26.52 207.617 27.24C206.337 27.96 204.844 28.6533 203.137 29.32C203.137 29.48 203.124 29.6533 203.097 29.84C203.097 30 203.097 30.1733 203.097 30.36C203.097 30.7067 203.124 31.0667 203.177 31.44C203.231 31.8133 203.324 32.16 203.457 32.48C203.591 32.8 203.777 33.0667 204.017 33.28C204.257 33.4667 204.564 33.56 204.937 33.56C205.657 33.56 206.364 33.4 207.057 33.08C207.751 32.76 208.404 32.3733 209.017 31.92C209.657 31.44 210.244 30.9333 210.777 30.4C211.337 29.84 211.831 29.3333 212.257 28.88C212.524 29.12 212.751 29.3467 212.937 29.56C211.737 31.16 210.417 32.4933 208.977 33.56C207.564 34.6 206.217 35.2667 204.937 35.56C203.097 35.3467 201.657 34.68 200.617 33.56C199.604 32.4133 199.097 31.04 199.097 29.44C199.097 28.3467 199.244 27.24 199.537 26.12C199.857 24.9733 200.284 23.88 200.817 22.84C201.377 21.7733 202.017 20.7733 202.737 19.84C203.484 18.9067 204.271 18.0933 205.097 17.4C205.951 16.7067 206.817 16.16 207.697 15.76C208.604 15.36 209.497 15.16 210.377 15.16C211.604 15.32 212.751 16.08 213.817 17.44ZM211.057 18.76C210.337 18.8667 209.591 19.16 208.817 19.64C208.044 20.12 207.311 20.76 206.617 21.56C205.951 22.36 205.337 23.2933 204.777 24.36C204.217 25.4267 203.777 26.5733 203.457 27.8C205.591 26.7333 207.364 25.4267 208.777 23.88C210.191 22.3067 210.951 20.6 211.057 18.76Z" fill="white"/>
</svg>
